<svg id="Layer_2" xmlns="http://www.w3.org/2000/svg" viewBox="0 0 33.33 33.4"><defs></defs><g id="Layer_1-2"><path class="cls-1" d="M14.51,25.62c-2.05,1.27-3.63,.6-4.98-1.17-.31-.41-.72-.74-1.09-1.1-1.82-1.82-1.88-2.11-.76-4.53,1.76-3.5,3.45-6.89,5.15-10.27,1.7-2.47,3.58-4.76,6.24-6.28C22.91,.06,27.03-.4,31.33,.31c.95,.16,1.57,.78,1.71,1.72,1.16,7.42-1.14,13.99-8.15,18.35-.8,.47-1.47,.91-2.18,1.26-2.72,1.34-5.46,2.66-8.2,3.98ZM22.87,6.85c-.7,1.36-.58,2.57,.36,3.41,.89,.8,2.3,.89,3.27,.19,1.21-.86,1.46-2.53,.55-3.68-1.03-1.3-2.72-1.33-4.18,.07Z"/><path class="cls-2" d="M7.68,18.74c1.75-3.43,3.45-6.81,5.05-10.2-.61,0-1.21,0-1.8,0-1.05,0-2.07,0-3.08-.02-1.88-.04-3.28,.76-4.25,2.31-1.12,1.79-2.21,3.6-3.26,5.44-.79,1.4-.14,2.48,1.46,2.5,1.94,.02,3.88,0,5.89-.04Zm13.03,3.89c-2.06,1.01-4.13,2.02-6.2,3.1,0,.69,0,1.38,0,2.05,0,1.24,0,2.46,.02,3.67,.03,1.64,1.25,2.43,2.57,1.65,1.82-1.07,3.63-2.17,5.4-3.33,1.3-.85,2.21-2,2.27-3.64,.06-1.9,.1-3.81,.07-5.7-.32,.17-.62,.35-.91,.52-.41,.24-.81,.48-1.23,.69-.66,.33-1.33,.65-1.99,.98Z"/></g></svg>