<svg version="1.0" xmlns="http://www.w3.org/2000/svg"
 width="48.000000pt" height="48.000000pt" viewBox="0 0 48.000000 48.000000"
 preserveAspectRatio="xMidYMid meet">

<g transform="translate(0.000000,48.000000) scale(0.100000,-0.100000)"
fill="#000000" stroke="none">
<path d="M0 240 l0 -240 240 0 240 0 0 240 0 240 -240 0 -240 0 0 -240z m118
184 c20 -6 22 -12 22 -83 0 -136 28 -191 99 -191 75 0 100 48 101 192 0 76 0
76 29 83 17 3 40 1 52 -5 21 -12 22 -17 17 -121 -5 -93 -9 -114 -32 -153 -32
-55 -93 -87 -164 -88 -62 0 -88 8 -130 39 -51 38 -64 74 -70 193 -4 91 -2 108
12 123 19 18 29 20 64 11z"/>
</g>
</svg>