<svg id="Layer_2" xmlns="http://www.w3.org/2000/svg" viewBox="0 0 23.75 27" width="40px" height="35px"> <style>
    .cls-1 {
        fill: #1e40af;
        stroke: #1e40af;
        stroke-miterlimit: 10;
    }
</style><g id="Layer_1-2"> <path class="cls-1" d="M12.57,1.2c0-.39-.31-.7-.7-.7s-.7,.31-.7,.7V5.22c0,.2-.25,.31-.39,.16l-2.06-2.05c-.27-.27-.72-.27-.99,0-.27,.27-.27,.71,0,.99l3.04,3.03c.26,.26,.4,.61,.4,.97v3.58c0,.18-.19,.29-.34,.2l-3.11-1.79c-.32-.18-.55-.48-.64-.83l-1.11-4.14c-.1-.37-.48-.59-.86-.49-.37,.1-.59,.48-.49,.85l.75,2.81c.05,.2-.16,.36-.34,.26L1.55,6.74c-.33-.19-.76-.08-.96,.26-.19,.33-.08,.76,.26,.95l3.48,2.01c.18,.1,.14,.37-.06,.42l-2.82,.75c-.37,.1-.59,.48-.49,.85,.1,.37,.48,.59,.86,.49l4.15-1.11c.35-.09,.73-.04,1.04,.14l3.11,1.79c.15,.09,.15,.31,0,.4l-3.12,1.8c-.32,.18-.69,.23-1.04,.14l-4.15-1.11c-.37-.1-.76,.12-.86,.49-.1,.37,.12,.76,.49,.85l2.81,.75c.2,.05,.23,.32,.06,.42l-3.48,2c-.33,.19-.45,.62-.26,.95,.19,.33,.62,.45,.96,.26l3.48-2.01c.18-.1,.39,.06,.34,.26l-.76,2.81c-.1,.37,.12,.76,.49,.85,.37,.1,.76-.12,.86-.49l1.11-4.15c.09-.35,.33-.65,.64-.83l3.11-1.79c.15-.09,.34,.02,.34,.2v3.59c0,.36-.14,.71-.4,.97l-3.04,3.03c-.27,.27-.27,.71,0,.99,.27,.27,.72,.27,.99,0l2.06-2.05c.14-.14,.39-.04,.39,.16v4.01c0,.39,.31,.7,.7,.7s.7-.31,.7-.7v-4.01c0-.2,.25-.31,.39-.16l2.06,2.06c.27,.27,.72,.27,.99,0,.27-.27,.27-.71,0-.99l-3.04-3.03c-.26-.26-.4-.61-.4-.97v-3.59c0-.18,.19-.29,.34-.2l3.11,1.79c.32,.18,.55,.48,.64,.83l1.11,4.15c.1,.37,.48,.59,.86,.49,.37-.1,.59-.48,.49-.85l-.76-2.81c-.05-.2,.16-.36,.34-.26l3.49,2.01c.33,.19,.76,.08,.96-.26,.19-.33,.08-.76-.26-.95l-3.49-2.01c-.18-.1-.14-.37,.06-.42l2.81-.75c.37-.1,.59-.48,.49-.85-.1-.37-.48-.59-.86-.49l-4.15,1.11c-.35,.09-.73,.04-1.04-.14l-3.11-1.79c-.15-.09-.15-.31,0-.4l3.1-1.79c.32-.18,.69-.23,1.04-.14l4.15,1.11c.37,.1,.76-.12,.86-.49,.1-.37-.12-.76-.49-.85l-2.82-.75c-.2-.05-.23-.32-.06-.42l3.49-2.01c.33-.19,.45-.62,.26-.95-.19-.33-.62-.45-.96-.26l-3.49,2.01c-.18,.1-.39-.06-.34-.26l.75-2.81c.1-.37-.12-.76-.49-.85-.37-.1-.76,.12-.86,.49l-1.11,4.14c-.09,.35-.33,.65-.64,.83l-3.11,1.79c-.15,.09-.34-.02-.34-.2v-3.58c0-.36,.14-.71,.4-.97l3.04-3.03c.27-.27,.27-.71,0-.99-.27-.27-.72-.27-.99,0l-2.06,2.06c-.14,.14-.39,.04-.39-.16V1.2Z"/> </g> </svg>